<svg width="16" height="23" viewBox="0 0 16 23" fill="none" xmlns="http://www.w3.org/2000/svg">
<path d="M2.45194 7.39915L8.00746 12.7025L13.563 7.39915C13.6955 7.2726 13.8529 7.17222 14.0261 7.10374C14.1993 7.03525 14.385 7 14.5724 7C14.7599 7 14.9455 7.03525 15.1187 7.10374C15.2919 7.17222 15.4493 7.2726 15.5819 7.39915C15.7144 7.5257 15.8196 7.67593 15.8913 7.84127C15.9631 8.00661 16 8.18382 16 8.36278C16 8.54174 15.9631 8.71895 15.8913 8.88429C15.8196 9.04964 15.7144 9.19987 15.5819 9.32641L9.00975 15.6003C8.87728 15.727 8.71994 15.8275 8.54673 15.8961C8.37351 15.9647 8.18783 16 8.0003 16C7.81278 16 7.62709 15.9647 7.45388 15.8961C7.28067 15.8275 7.12332 15.727 6.99086 15.6003L0.418732 9.32641C0.285996 9.19996 0.180688 9.04976 0.108836 8.88441C0.0369846 8.71905 0 8.5418 0 8.36278C0 8.18377 0.0369846 8.00651 0.108836 7.84116C0.180688 7.6758 0.285996 7.5256 0.418732 7.39915C0.977148 6.87975 1.89352 6.86608 2.45194 7.39915Z" fill="#E7742E"/>
</svg>
