<svg width="99" height="99" viewBox="0 0 99 99" fill="none" xmlns="http://www.w3.org/2000/svg">
<circle cx="49.5" cy="49.5" r="49.5" fill="#F5F5F5"/>
<path fill-rule="evenodd" clip-rule="evenodd" d="M69.3975 49.3132C69.9604 48.7272 70.2766 47.9325 70.2766 47.1038C70.2766 46.2752 69.9604 45.4804 69.3975 44.8944L51.3814 26.1442C50.8183 25.5583 50.0547 25.2292 49.2585 25.2292C48.4623 25.2292 47.6987 25.5583 47.1356 26.1442L29.1195 44.8944C28.5725 45.4838 28.2699 46.2732 28.2767 47.0926C28.2836 47.9119 28.5994 48.6957 29.1561 49.2751C29.7128 49.8546 30.4659 50.1832 31.2532 50.1903C32.0405 50.1975 32.799 49.8825 33.3653 49.3132L46.2558 35.8974V72.1041C46.2558 72.933 46.5722 73.7278 47.1353 74.3139C47.6984 74.8999 48.4621 75.2292 49.2585 75.2292C50.0548 75.2292 50.8186 74.8999 51.3817 74.3139C51.9448 73.7278 52.2612 72.933 52.2612 72.1041V35.8974L65.1517 49.3132C65.7148 49.8991 66.4784 50.2282 67.2746 50.2282C68.0708 50.2282 68.8344 49.8991 69.3975 49.3132Z" fill="#E7742E"/>
</svg>
