<svg width="49" height="48" viewBox="0 0 49 48" fill="none" xmlns="http://www.w3.org/2000/svg">
<line x1="0.5" y1="2.18557e-08" x2="0.499998" y2="48" stroke="#B4B4B4"/>
<path fill-rule="evenodd" clip-rule="evenodd" d="M35.5604 24.958C35.8419 25.251 36 25.6484 36 26.0627C36 26.477 35.8419 26.8744 35.5604 27.1674L26.5524 36.5425C26.2708 36.8354 25.889 37 25.4909 37C25.0928 37 24.711 36.8354 24.4295 36.5425L15.4214 27.1674C15.148 26.8727 14.9966 26.478 15.0001 26.0683C15.0035 25.6586 15.1614 25.2667 15.4397 24.977C15.7181 24.6873 16.0947 24.523 16.4883 24.5194C16.8819 24.5159 17.2612 24.6734 17.5443 24.958L23.9896 31.6659V13.5625C23.9896 13.1481 24.1478 12.7507 24.4293 12.4577C24.7109 12.1646 25.0928 12 25.4909 12C25.8891 12 26.271 12.1646 26.5525 12.4577C26.8341 12.7507 26.9923 13.1481 26.9923 13.5625V31.6659L33.4375 24.958C33.7191 24.6651 34.1009 24.5005 34.499 24.5005C34.8971 24.5005 35.2789 24.6651 35.5604 24.958Z" fill="#B4B4B4"/>
</svg>
