<?xml version="1.0" encoding="utf-8"?>
<!-- Svg Vector Icons : http://www.onlinewebfonts.com/icon -->
<!DOCTYPE svg PUBLIC "-//W3C//DTD SVG 1.1//EN" "http://www.w3.org/Graphics/SVG/1.1/DTD/svg11.dtd">
<svg version="1.1" xmlns="http://www.w3.org/2000/svg" xmlns:xlink="http://www.w3.org/1999/xlink" x="0px" y="0px" viewBox="0 0 256 256" enable-background="new 0 0 256 256" xml:space="preserve">
<metadata> Svg Vector Icons : http://www.onlinewebfonts.com/icon </metadata>
<g><g><g><path fill="#000000" d="M14.6,11.1C9.7,13.2,10,5.9,10,128c0,122.6-0.3,114.8,4.7,116.9c3.9,1.6,222.6,1.6,226.6,0c5-2.1,4.7,5.7,4.7-116.9c0-122.6,0.3-114.8-4.7-116.9C237.4,9.5,18.3,9.5,14.6,11.1z M200.6,70.8c2.9,1.3,4.1,3.1,4.1,6.9c0,2.7-1.3,4.1-52.5,55.3c-28.9,28.8-53.3,52.7-54.2,52.9c-0.9,0.3-2.7,0-4.1-0.5c-1.4-0.7-11.1-9.8-22.5-21.3c-20.1-20.1-20.1-20.2-20.1-23.4c0-4.3,3-7.4,7.1-7.4c2.7,0,3.7,0.8,20.4,17.5l17.6,17.6l48.5-48.5c26.6-26.7,49.3-48.8,50.3-49.2C197.6,69.6,197.8,69.6,200.6,70.8z"/></g></g></g>
</svg>