<svg width="36" height="32" viewBox="0 0 36 32" fill="none" xmlns="http://www.w3.org/2000/svg">
<path fill-rule="evenodd" clip-rule="evenodd" d="M2.63651 28.2909C1.788 29.1394 1.788 30.5151 2.63651 31.3636C3.48502 32.2121 4.86072 32.2121 5.70923 31.3636L18 19.0728L30.2908 31.3636C31.1394 32.2121 32.5151 32.2121 33.3636 31.3636C34.2121 30.5151 34.2121 29.1394 33.3636 28.2909L21.0728 16.0001L33.3637 3.70911C34.2122 2.8606 34.2122 1.48489 33.3637 0.636382C32.5152 -0.212128 31.1395 -0.212127 30.291 0.636382L18 12.9273L5.7091 0.636383C4.86059 -0.212125 3.48489 -0.212126 2.63638 0.636383C1.78787 1.48489 1.78787 2.8606 2.63638 3.70911L14.9273 16.0001L2.63651 28.2909Z" fill="#E7742E"/>
</svg>
