<svg width="36" height="32" viewBox="0 0 36 32" fill="none" xmlns="http://www.w3.org/2000/svg">
<path fill-rule="evenodd" clip-rule="evenodd" d="M0 2C0 0.895431 0.805887 0 1.8 0H34.2C35.1941 0 36 0.895431 36 2C36 3.10457 35.1941 4 34.2 4H1.8C0.805887 4 0 3.10457 0 2Z" fill="#E7742E"/>
<path fill-rule="evenodd" clip-rule="evenodd" d="M0 15C0 13.8954 0.805887 13 1.8 13H34.2C35.1941 13 36 13.8954 36 15C36 16.1046 35.1941 17 34.2 17H1.8C0.805887 17 0 16.1046 0 15Z" fill="#E7742E"/>
<path fill-rule="evenodd" clip-rule="evenodd" d="M0 28C0 26.8954 0.805887 26 1.8 26H34.2C35.1941 26 36 26.8954 36 28C36 29.1046 35.1941 30 34.2 30H1.8C0.805887 30 0 29.1046 0 28Z" fill="#E7742E"/>
</svg>
